<?xml version="1.0" encoding="UTF-8" standalone="no"?>
<!-- Created with Inkscape (http://www.inkscape.org/) -->

<svg
   width="315.54419mm"
   height="394.56241mm"
   viewBox="0 0 315.54419 394.56241"
   version="1.1"
   id="svg1"
   xml:space="preserve"
   xmlns="http://www.w3.org/2000/svg"
   xmlns:svg="http://www.w3.org/2000/svg"><defs
     id="defs1" /><g
     id="layer1"
     transform="translate(-1.7672088,-2.4801562)"><path
       style="fill:#0f100e;stroke:none;stroke-width:8.88563"
       d="M 17.611673,6.0090608 C -3.3088873,13.626668 2.8934201,42.136799 2.8934201,58.547949 V 218.93619 338.66256 c 0,13.67131 -4.4234639,35.45887 4.2629131,47.30634 11.8730778,16.19377 50.5960398,9.16843 69.1392458,9.16843 H 235.33363 c 19.72939,0 49.99429,5.24843 68.40109,-1.67684 C 322.6519,386.3432 316.076,355.8959 316.076,340.92161 V 180.53336 58.547949 c 0,-13.022106 4.70995,-35.960398 -4.26292,-46.922819 C 300.20051,-2.5624021 259.87054,4.3322199 242.67385,4.3322199 H 86.0826 c -19.938562,0 -49.789268,-5.12556073 -68.470927,1.6768409 m 56.2372,11.8770912 c -0.753677,33.723215 -19.921646,62.600044 -56.275019,72.287661 0,-13.509182 -7.9239909,-61.302791 3.923177,-69.965948 10.123899,-7.403059 39.795932,-2.321713 52.351842,-2.321713 m 66.061957,0 h 48.9348 C 187.91403,121.77452 70.474562,175.58059 20.020664,257.33894 h -2.44681 c 0,-21.44723 -7.8903507,-58.70778 1.476366,-78.33072 4.151588,-8.69738 17.585456,-14.68596 25.437786,-20.27684 3.802593,-2.70746 25.211704,-15.40367 17.735077,-21.39421 -7.106529,-5.69394 -36.559496,19.7079 -44.649229,22.86528 0,-13.88622 -5.730957,-41.39938 2.514762,-53.33376 6.233477,-9.022014 22.625349,-12.500437 31.643347,-19.051498 23.597807,-17.14251 35.523968,-42.619708 36.797345,-69.93104 9.2206,0 27.629532,-3.232197 35.224712,2.321713 19.95309,14.590519 -13.69123,62.555649 -23.56869,74.483889 -3.442385,4.157096 -26.876226,24.619656 -19.887319,29.544656 7.903102,5.56928 24.719509,-15.97579 28.622709,-20.50866 20.11593,-23.361175 38.90451,-55.135521 30.99011,-85.841598 m 122.33695,0 c -32.08417,71.149577 -79.28616,121.487998 -73.18317,203.308998 2.01734,27.04632 11.19697,54.67192 23.7122,79.06465 1.95807,3.81618 13.0317,26.90619 20.41777,18.89456 4.68435,-5.08098 -4.60119,-16.57541 -7.01357,-21.1536 -11.01889,-20.91141 -17.34522,-42.61348 -21.21078,-65.51064 -9.81004,-58.11004 9.11454,-111.09879 41.12834,-160.388239 7.69494,-11.847461 29.19671,-68.106141 51.37393,-51.894016 13.81635,10.100181 2.31807,50.503103 -5.52974,60.929941 -39.60434,52.620174 -60.26791,113.130494 -36.84267,176.201134 13.0883,35.23913 67.10361,80.47067 44.8191,121.00586 -3.86424,7.029 -16.11849,6.26828 -21.83938,1.8755 -8.10665,-6.22462 -19.0524,-42.09102 -31.55836,-39.81815 -11.2705,2.04825 12.84583,36.12689 15.72633,41.18125 -50.28827,13.72382 -71.1391,-34.19783 -88.42244,-70.02872 -24.93009,-51.68372 -36.93597,-109.51843 -19.14531,-164.90616 14.80111,-46.08057 44.60965,-79.200908 48.84602,-128.762368 h 58.72173 m 39.14779,74.546632 V 309.29573 h -2.4467 C 260.90386,245.96465 232.41001,150.81007 301.39557,92.432784 M 139.91083,148.90749 c -17.07305,56.09286 -5.03214,115.33539 21.48446,167.16519 11.59741,22.66841 31.52849,44.13989 39.68396,67.76967 H 152.14456 C 143.68353,345.99515 126.36895,310.74888 117.0368,273.15194 115.04535,265.1286 114.56041,238.08613 103.0776,236.4886 92.231175,234.97971 78.828203,259.44943 73.858311,266.37496 48.115909,302.247 36.185969,339.76334 20.020664,379.32435 h -2.44681 c 0,-28.94069 -7.9886531,-69.73133 2.363671,-97.13649 20.055,-53.09043 81.283625,-88.45754 115.079805,-133.28037 h 4.8935 M 98.316237,257.33894 137.46411,383.84235 c -28.29463,0 -29.92561,-7.13333 -35.23228,-31.62587 -1.50283,-6.93611 -2.781578,-31.15868 -13.772341,-31.15868 -9.717475,0 -14.83921,17.88608 -17.512314,24.38171 -9.640621,23.42631 -4.956379,38.39968 -36.246088,38.40284 5.880421,-40.2851 30.779345,-98.72086 63.61515,-126.50341 M 86.0826,347.69856 93.422811,383.84235 H 76.295579 L 86.0826,347.69856"
       id="path1" /></g></svg>
